HIERARCHY
ROOT Hips
{
	OFFSET 0.00000 0.00000 0.00000
	CHANNELS 6 Xposition Yposition Zposition Zrotation Yrotation Xrotation 
	JOINT LHipJoint
	{
		OFFSET 0 0 0
		CHANNELS 3 Zrotation Yrotation Xrotation
		JOINT LeftUpLeg
		{
			OFFSET 1.36337 -1.57426 1.11036
			CHANNELS 3 Zrotation Yrotation Xrotation
			JOINT LeftLeg
			{
				OFFSET 2.38468 -6.55187 0.00000
				CHANNELS 3 Zrotation Yrotation Xrotation
				JOINT LeftFoot
				{
					OFFSET 2.37166 -6.51609 0.00000
					CHANNELS 3 Zrotation Yrotation Xrotation
					JOINT LeftToeBase
					{
						OFFSET 0.29078 -0.79891 2.01393
						CHANNELS 3 Zrotation Yrotation Xrotation
						End Site
						{
							OFFSET 0.00000 -0.00000 1.07924
						}
					}
				}
			}
		}
	}
	JOINT RHipJoint
	{
		OFFSET 0 0 0
		CHANNELS 3 Zrotation Yrotation Xrotation
		JOINT RightUpLeg
		{
			OFFSET -1.36349 -1.57426 1.11036
			CHANNELS 3 Zrotation Yrotation Xrotation
			JOINT RightLeg
			{
				OFFSET -2.29562 -6.30717 0.00000
				CHANNELS 3 Zrotation Yrotation Xrotation
				JOINT RightFoot
				{
					OFFSET -2.40985 -6.62100 0.00000
					CHANNELS 3 Zrotation Yrotation Xrotation
					JOINT RightToeBase
					{
						OFFSET -0.23197 -0.63733 1.92232
						CHANNELS 3 Zrotation Yrotation Xrotation
						End Site
						{
							OFFSET -0.00000 -0.00000 1.01562
						}
					}
				}
			}
		}
	}
	JOINT LowerBack
	{
		OFFSET 0 0 0
		CHANNELS 3 Zrotation Yrotation Xrotation
		JOINT Spine
		{
			OFFSET -0.08565 2.03602 -0.24562
			CHANNELS 3 Zrotation Yrotation Xrotation
			JOINT Spine1
			{
				OFFSET -0.00036 2.05693 0.00216
				CHANNELS 3 Zrotation Yrotation Xrotation
				JOINT Neck
				{
					OFFSET 0 0 0
					CHANNELS 3 Zrotation Yrotation Xrotation
					JOINT Neck1
					{
						OFFSET -0.03664 1.69515 0.31789
						CHANNELS 3 Zrotation Yrotation Xrotation
						JOINT Head
						{
							OFFSET 0.00932 1.70181 -0.46013
							CHANNELS 3 Zrotation Yrotation Xrotation
							End Site
							{
								OFFSET 0.01243 1.77620 -0.19377
							}
						}
					}
				}
				JOINT LeftShoulder
				{
					OFFSET 0 0 0
					CHANNELS 3 Zrotation Yrotation Xrotation
					JOINT LeftArm
					{
						OFFSET 3.74344 0.81315 -0.36647
						CHANNELS 3 Zrotation Yrotation Xrotation
						JOINT LeftForeArm
						{
							OFFSET 4.97185 -0.00000 -0.00000
							CHANNELS 3 Zrotation Yrotation Xrotation
							JOINT LeftHand
							{
								OFFSET 3.35811 -0.00000 0.00000
								CHANNELS 3 Zrotation Yrotation Xrotation
								JOINT LeftFingerBase
								{
									OFFSET 0 0 0
									CHANNELS 3 Zrotation Yrotation Xrotation
									JOINT LeftHandIndex1
									{
										OFFSET 0.62278 -0.00000 0.00000
										CHANNELS 3 Zrotation Yrotation Xrotation
										End Site
										{
											OFFSET 0.50210 -0.00000 0.00000
										}
									}
								}
								JOINT LThumb
								{
									OFFSET 0 0 0
									CHANNELS 3 Zrotation Yrotation Xrotation
									End Site
									{
										OFFSET 0.50976 -0.00000 0.50976
									}
								}
							}
						}
					}
				}
				JOINT RightShoulder
				{
					OFFSET 0 0 0
					CHANNELS 3 Zrotation Yrotation Xrotation
					JOINT RightArm
					{
						OFFSET -3.75385 0.50666 -0.06525
						CHANNELS 3 Zrotation Yrotation Xrotation
						JOINT RightForeArm
						{
							OFFSET -4.96493 -0.00000 -0.00000
							CHANNELS 3 Zrotation Yrotation Xrotation
							JOINT RightHand
							{
								OFFSET -3.34929 -0.00000 0.00000
								CHANNELS 3 Zrotation Yrotation Xrotation
								JOINT RightFingerBase
								{
									OFFSET 0 0 0
									CHANNELS 3 Zrotation Yrotation Xrotation
									JOINT RightHandIndex1
									{
										OFFSET -0.63804 -0.00000 0.00000
										CHANNELS 3 Zrotation Yrotation Xrotation
										End Site
										{
											OFFSET -0.51441 -0.00000 0.00000
										}
									}
								}
								JOINT RThumb
								{
									OFFSET 0 0 0
									CHANNELS 3 Zrotation Yrotation Xrotation
									End Site
									{
										OFFSET -0.52226 -0.00000 0.52226
									}
								}
							}
						}
					}
				}
			}
		}
	}
}
MOTION
Frames: 9
Frame Time: .0083333
6.9918 15.9048 0.7177 0 0 0 0 0 0 -21 0 0 0 0 0 0 0 0 0 0 0 0 0 0 21 0 0 0 0 0 0 0 0 0 0 0 0 0 0 0 0 0 0 0 0 0 0 -16 0 0 21 0 0 11 0 0 0 -8 0 0 0 0 0 0 0 0 0 0 0 0 0 0 0 0 0 0 0 0 8 0 0 0 0 0 0 0 0 0 0 0 0 0 0 0 0 0
6.9918 15.9048 0.7177 176.5140 -81.6716 -168.3500 0.0000 0.0000 0.0000 -8.6185 0.8454 -38.1498 7.7709 15.9482 51.7334 1.2471 1.3409 -21.6254 0.0386 -1.2684 -3.4877 0.0000 0.0000 0.0000 0.4022 -2.8723 -30.2883 -2.1946 -9.2601 26.6125 0.2875 -9.4978 -4.4558 -1.1732 6.8751 -19.3459 -0.4735 1.7407 29.8086 -0.2130 1.3402 6.9123 -0.4035 0.3413 -8.6187 -4.1857 0.3672 -30.0547 -0.7210 2.5975 23.8156 0.8961 0.5986 12.8922 -0.0000 -0.0000 0.0000 -76.8195 -22.5876 46.4139 69.7920 -58.3993 -42.5934 -0.0000 0.0000 -1.9588 26.4576 -10.9029 -5.3774 -7.1250 0.0000 -0.0000 -0.4456 17.8375 0.2877 -0.0000 -0.0000 0.0000 85.1857 9.8166 24.8135 -48.6558 52.4388 -25.1046 0.0000 -0.0000 -14.5670 -7.9776 -28.8510 3.8686 7.1250 -0.0000 -0.0000 25.0383 -57.2579 -7.8496
6.9804 15.8966 0.6829 173.8840 -82.4494 -165.7810 0.0000 0.0000 0.0000 -8.8235 0.6293 -38.0837 7.7342 15.9202 51.5996 1.2334 0.7486 -21.2769 0.0193 -0.8967 -2.4647 0.0000 0.0000 0.0000 0.0764 -3.2118 -30.3650 -2.3555 -9.5704 27.5964 0.2821 -9.5548 -5.5254 -0.9868 6.3229 -17.7242 -0.5582 1.5978 29.8729 -0.3470 1.1617 6.5399 -0.4476 0.2757 -9.0732 -3.9553 0.4136 -28.2553 -0.5375 2.3804 23.3793 0.8741 0.5736 12.3836 0.0000 -0.0000 0.0000 -78.4222 -21.7188 45.8234 70.9832 -58.5885 -43.6091 -0.0000 0.0000 -3.0428 25.9095 -11.7240 -5.6374 -7.1250 0.0000 -0.0000 -0.8817 16.9889 0.5857 0.0000 -0.0000 0.0000 85.3408 8.7518 24.6119 -48.5235 52.3824 -24.9998 0.0000 -0.0000 -14.4339 -7.3229 -31.2049 3.8092 7.1250 -0.0000 -0.0000 27.5767 -59.2050 -10.0422
6.9879 15.8858 0.6439 173.7130 -82.9716 -165.5620 0.0000 0.0000 0.0000 -8.6166 0.5884 -38.3359 7.7524 15.9341 51.6658 1.2088 0.3692 -20.9260 0.0154 -0.8002 -2.1991 0.0000 0.0000 0.0000 0.0639 -2.8618 -30.5247 -2.5132 -9.8619 28.5306 0.2922 -9.9044 -6.5146 -0.8790 5.9769 -16.7174 -0.7314 1.6015 30.1735 -0.2825 1.1569 6.1125 -0.2835 0.2934 -9.7138 -3.5696 0.6498 -26.8231 -0.8491 2.5461 23.1183 0.7105 0.6498 12.0208 0.0000 0.0000 0.0000 -80.1276 -20.9185 45.0864 71.9910 -58.7384 -44.4698 -0.0000 0.0000 -3.9151 24.6217 -12.0417 -5.4615 -7.1250 0.0000 -0.0000 -1.7972 16.7783 1.2025 0.0000 0.0000 0.0000 85.2784 7.8175 24.5979 -48.3353 52.3016 -24.8508 0.0000 -0.0000 -14.4547 -7.0396 -32.6439 3.8109 7.1250 -0.0000 -0.0000 29.1608 -60.3897 -11.5164
6.9657 15.8830 0.6205 174.5260 -83.5956 -166.3190 0.0000 0.0000 0.0000 -8.3969 0.4580 -38.4139 7.7633 15.9424 51.7056 1.2087 0.0561 -20.8150 0.0229 -0.9778 -2.6877 0.0000 0.0000 0.0000 0.2272 -3.1654 -30.6918 -2.6766 -10.1521 29.4706 0.2552 -9.6078 -7.3519 -0.8660 5.9337 -16.5920 -0.2638 1.6251 30.2921 -0.1116 1.3089 6.5325 -0.4129 0.3392 -9.2831 -3.9904 0.2991 -29.2593 -0.7145 2.3607 23.9172 0.8177 0.5155 12.7911 0.0000 0.0000 0.0000 -82.1103 -22.1484 44.7353 72.3724 -58.7927 -44.7959 -0.0000 0.0000 -4.6447 23.3992 -12.8092 -5.4800 -7.1250 0.0000 -0.0000 -2.6867 16.0758 1.8397 0.0000 0.0000 0.0000 84.8007 8.6563 24.1139 -48.1085 52.2035 -24.6714 0.0000 -0.0000 -14.1664 -6.6383 -33.7183 3.6964 7.1250 -0.0000 -0.0000 30.6178 -61.2113 -12.7593
6.9472 15.8615 0.5995 174.2040 -84.1590 -166.0580 0.0000 0.0000 0.0000 -8.2706 0.2013 -38.4203 7.7967 15.9677 51.8271 1.2097 -0.1924 -20.7395 0.0241 -1.0014 -2.7526 0.0000 0.0000 0.0000 0.1697 -3.3726 -30.6602 -2.8381 -10.4282 30.3747 0.2126 -9.3147 -8.2372 -0.7274 5.4494 -15.1948 0.1902 1.5314 30.4478 -0.2274 1.3171 6.5209 -0.8122 0.3325 -9.3566 -4.1531 0.2317 -29.1452 -0.2859 2.2020 23.8541 0.9801 0.4976 12.7368 0.0000 0.0000 0.0000 -83.3968 -22.1126 44.5399 73.0705 -58.8889 -45.3933 -0.0000 0.0000 -5.1758 22.8866 -13.3027 -5.5479 -7.1250 0.0000 -0.0000 -3.0659 15.5999 2.1316 0.0000 0.0000 0.0000 84.7523 8.3865 24.0074 -47.9224 52.1224 -24.5245 0.0000 -0.0000 -13.2545 -6.3057 -33.8330 3.5207 7.1250 -0.0000 -0.0000 31.0711 -61.2270 -12.9809
6.9356 15.8576 0.5639 176.7610 -84.6710 -168.7560 0.0000 0.0000 0.0000 -7.7648 0.1078 -38.3617 7.8170 15.9830 51.9008 1.1968 -0.5440 -20.5153 0.0206 -0.9258 -2.5446 0.0000 0.0000 0.0000 0.4648 -3.0952 -30.3743 -2.9793 -10.6615 31.1466 0.1964 -9.4612 -9.1263 -0.5735 4.8496 -13.4801 0.6407 1.5519 30.1079 -0.1931 1.4468 6.9697 -1.0690 0.3774 -8.6653 -4.4254 0.1547 -29.4672 0.0670 2.1300 23.6194 1.1485 0.4998 12.6946 0.0000 0.0000 0.0000 -84.5024 -22.8414 44.6228 73.3711 -58.9289 -45.6507 -0.0000 0.0000 -5.6440 23.2950 -13.5069 -5.7425 -7.1250 0.0000 -0.0000 -2.7966 15.3357 1.9598 0.0000 0.0000 0.0000 84.6279 8.9918 23.4663 -46.9864 51.7053 -23.7877 0.0000 -0.0000 -12.4371 -6.1165 -32.6355 3.3075 7.1250 -0.0000 -0.0000 30.0838 -60.1652 -11.7578
6.9279 15.8443 0.5423 168.8430 -85.3683 -160.8460 0.0000 0.0000 0.0000 -8.3155 -0.4863 -38.4586 7.8544 16.0111 52.0364 1.1940 -0.7228 -20.4359 0.0291 -1.1009 -3.0264 0.0000 0.0000 0.0000 -0.1644 -3.8469 -30.6140 -3.1263 -10.8967 31.9323 0.1691 -9.2373 -9.4516 -0.5809 4.8804 -13.5677 0.3450 1.4617 31.0490 -0.2755 1.2858 6.3414 -0.9578 0.3156 -9.8488 -4.4709 0.2563 -29.1783 0.1225 2.2599 24.1733 1.2051 0.5437 12.8593 -0.0000 -0.0000 0.0000 -85.6737 -21.8113 44.9454 73.8512 -58.9913 -46.0621 -0.0000 0.0000 -6.1102 23.7117 -13.5391 -5.8707 -7.1250 0.0000 -0.0000 -2.5128 15.2542 1.7649 -0.0000 -0.0000 0.0000 84.3751 7.9210 23.3875 -46.7172 51.5825 -23.5767 0.0000 -0.0000 -12.5265 -6.7806 -32.2857 3.6339 7.1250 -0.0000 -0.0000 29.0879 -60.0202 -11.2257
6.9173 15.8304 0.5186 164.3230 -85.9541 -156.3690 0.0000 0.0000 0.0000 -8.4298 -0.8066 -38.5721 7.9047 16.0487 52.2188 1.1890 -0.9278 -20.3311 0.0380 -1.2589 -3.4615 0.0000 0.0000 0.0000 -0.3406 -4.3527 -30.7913 -3.2671 -11.1153 32.6697 0.1430 -9.0904 -9.8793 -0.6029 4.9702 -13.8235 0.4707 1.4154 31.0239 -0.3238 1.2594 6.4143 -1.0743 0.3005 -9.7486 -4.3459 0.2584 -29.2339 0.0677 2.2288 24.2215 1.1584 0.5329 12.8924 0.0000 0.0000 0.0000 -86.5294 -21.9015 45.4658 73.8137 -58.9865 -46.0299 -0.0000 0.0000 -6.6293 23.9471 -13.6090 -5.9657 -7.1250 0.0000 -0.0000 -2.3558 15.1519 1.6596 0.0000 0.0000 0.0000 84.1977 7.9013 23.1501 -46.4201 51.4455 -23.3441 0.0000 -0.0000 -12.4822 -7.0386 -31.8820 3.7311 7.1250 -0.0000 -0.0000 28.4595 -59.7306 -10.7595
